# xmcd CD database file
#
# Track frame offsets:
#	150
#	9374
#	19853
#	30621
#	41517
#	52404
#	63738
#	75097
#	87111
#	99194
#
# Disc length: 1488 seconds
#
# Revision: 1
# Processed by: cddbd v1.5.1PL2 Copyright (c) Steve Scherf et al.
# Submitted via: CDex 1.60beta1-cs1
#
DISCID=6d05ce0a
DTITLE=Various Artist - JazzVocals In The Morning
DYEAR=1900
DGENRE=Jazz
TTITLE0=01-Come On-A My House
TTITLE1=02-In The Shade Of The Old Apple Tree
TTITLE2=03-How High The Moon
TTITLE3=04-Goody Goody
TTITLE4=05-I'm Gonna Sit Right Down And Write Myself A Letter
TTITLE5=06-Blue Skies
TTITLE6=07-I Can't Get Started
TTITLE7=08-Any Time
TTITLE8=09-Chattanoogie Shoe Shine Boy
TTITLE9=10-All Of Me
EXTD=
EXTT0=
EXTT1=
EXTT2=
EXTT3=
EXTT4=
EXTT5=
EXTT6=
EXTT7=
EXTT8=
EXTT9=
PLAYORDER=
